# xmcd
# 
# Track frame offsets:
#     150
#     17862
#     34512
#     53062
#     68095
#     81617
#     104397
#     122275
#     139035
#     153202
#     174125
#     193405
#     218635
# 
# Disc length: 3213
# 
# Revision: 4
# Processed by: cddbd v1.5.2PL0 Copyright (c) Steve Scherf et al.
# Submitted via: fre:ac v1.0.17
# 
DISCID=a80c8b0d
DTITLE=A Windham Hill Collection - A Celtic Season
DYEAR=1999
DGENRE=Celtic
TTITLE0=(Phil Cunningham and Manus Lunny) - When The Snow Melts
TTITLE1=(Triona Ni Dhomhnaill) - Solus
TTITLE2=(Kevin Burke and Micheal O Domhnaill - On A Cold Winter's Day/Christmas Eve
TTITLE3=(Liam O'Flynn) - The Winter's End
TTITLE4=(Luka Bloom) - Ciara
TTITLE5=Cormac Breatnach) - Nollaig Na Mban
TTITLE6=(Maighread Ni Dhomhnaill and Donal Lunny) - Third Carol For Christmas Day
TTITLE7=(Nightnoise) - Snow On High Ground
TTITLE8=(Carlos Nunez) - Galician Carol
TTITLE9=(Altan) - Soillse Na Nollag
TTITLE10=(Johnny Cunningham) - King Holly, King Oak
TTITLE11=(Loreena Mckennitt) - Snow
TTITLE12=(Jeff Johnson and Brian Dunning) - We Follow A Star
EXTD=YEAR: 1999 ID3G: 88
EXTT0=(Phil Cunningham and Manus Lunny)
EXTT1=(Triona Ni Dhomhnaill)
EXTT2=(Kevin Burke and Micheal O Domhnaill
EXTT3=(Liam O'Flynn)
EXTT4=(Luka Bloom)
EXTT5=(Cormac Breatnach)
EXTT6=(Maighread Ni Dhomhnaill and Donal Lunny)
EXTT7=(Nightnoise)
EXTT8=(Carlos Nunez)
EXTT9=(Altan)
EXTT10=(Johnny Cunningham)
EXTT11=(Loreena Mckennitt)
EXTT12=(Jeff Johnson and Brian Dunning)
PLAYORDER=
